HIERARCHY
ROOT SpineBase
{
  OFFSET 0.000000 0.000000 0.000000
  CHANNELS 6 Xposition Yposition Zposition Zrotation Xrotation Yrotation
  JOINT SpineMid
  {
    OFFSET 0.000000 30.010933 0.000000
    CHANNELS 3 Zrotation Xrotation Yrotation
    JOINT SpineShoulder
    {
      OFFSET -0.007920 22.347588 -0.808410
      CHANNELS 3 Zrotation Xrotation Yrotation
      JOINT Neck
      {
        OFFSET -0.007761 7.416382 -0.604259
        CHANNELS 3 Zrotation Xrotation Yrotation
        JOINT Head
        {
          OFFSET -6.636049 11.576044 0.791959
          CHANNELS 3 Zrotation Xrotation Yrotation
          End Site
          {
            OFFSET 0 0 0
          }
        }
      }
      JOINT ShoulderLeft
      {
        OFFSET -14.454959 -6.028621 10.781395
        CHANNELS 3 Zrotation Xrotation Yrotation
        JOINT ElbowLeft
        {
          OFFSET -0.962088 -28.245425 2.651146
          CHANNELS 3 Zrotation Xrotation Yrotation
          JOINT WristLeft
          {
            OFFSET 0.090504 -21.947810 -6.766107
            CHANNELS 3 Zrotation Xrotation Yrotation
            JOINT HandLeft
            {
              OFFSET 1.167170 -6.302648 -3.838928
              CHANNELS 3 Zrotation Xrotation Yrotation
              JOINT HandTipLeft
              {
                OFFSET 2.180560 -7.091688 -1.841914
                CHANNELS 3 Zrotation Xrotation Yrotation
                End Site
                {
                  OFFSET 0 0 0
                }
              }
              JOINT ThumbLeft
              {
                OFFSET -3.466631 0.372276 -0.827541
                CHANNELS 3 Zrotation Xrotation Yrotation
                End Site
                {
                  OFFSET 0 0 0
                }
              }
            }
          }
        }
      }
      JOINT ShoulderRight
      {
        OFFSET 10.648606 -2.600036 -12.346660
        CHANNELS 3 Zrotation Xrotation Yrotation
        JOINT ElbowRight
        {
          OFFSET 5.236393 -21.809813 -6.309260
          CHANNELS 3 Zrotation Xrotation Yrotation
          JOINT WristRight
          {
            OFFSET -6.332137 -21.732768 -2.879382
            CHANNELS 3 Zrotation Xrotation Yrotation
            JOINT HandRight
            {
              OFFSET -2.971990 -8.444838 0.824274
              CHANNELS 3 Zrotation Xrotation Yrotation
              JOINT HandTipRight
              {
                OFFSET -1.693779 -7.306214 -0.390671
                CHANNELS 3 Zrotation Xrotation Yrotation
                End Site
                {
                  OFFSET 0 0 0
                }
              }
              JOINT ThumbRight
              {
                OFFSET 3.606310 1.450373 0.984115
                CHANNELS 3 Zrotation Xrotation Yrotation
                End Site
                {
                  OFFSET 0 0 0
                }
              }
            }
          }
        }
      }
    }
  }
  JOINT HipLeft
  {
    OFFSET -5.181664 0.381594 1.120447
    CHANNELS 3 Zrotation Xrotation Yrotation
    JOINT KneeLeft
    {
      OFFSET 3.589423 -37.472818 6.011743
      CHANNELS 3 Zrotation Xrotation Yrotation
      JOINT AnkleLeft
      {
        OFFSET 7.752203 -34.984235 5.213072
        CHANNELS 3 Zrotation Xrotation Yrotation
        JOINT FootLeft
        {
          OFFSET -2.809864 -8.039388 -2.163910
          CHANNELS 3 Zrotation Xrotation Yrotation
          End Site
          {
            OFFSET 0 0 0
          }
        }
      }
    }
  }
  JOINT HipRight
  {
    OFFSET 5.041251 2.083452 -7.879679
    CHANNELS 3 Zrotation Xrotation Yrotation
    JOINT KneeRight
    {
      OFFSET 9.265954 -36.627963 -1.814563
      CHANNELS 3 Zrotation Xrotation Yrotation
      JOINT AnkleRight
      {
        OFFSET 6.804563 -37.056599 5.684427
        CHANNELS 3 Zrotation Xrotation Yrotation
        JOINT FootRight
        {
          OFFSET -3.143095 -7.587423 -5.450203
          CHANNELS 3 Zrotation Xrotation Yrotation
          End Site
          {
            OFFSET 0 0 0
          }
        }
      }
    }
  }
}
MOTION
Frames: 10
Frame Time: 0.033333
6.066062 81.562295 282.938732 -0.000000 0.000000 41.360285 -0.000000 0.000000 -41.360285 -0.000000 0.000000 0.000000 -0.000000 0.000000 0.000000 0.000000 0.000000 0.000000 -0.000000 0.000000 0.000000 -0.000000 0.000000 0.000000 -0.000000 0.000000 0.000000 -0.000000 0.000000 0.000000 0.000000 0.000000 0.000000 0.000000 0.000000 0.000000 -0.000000 0.000000 0.000000 -0.000000 0.000000 0.000000 -0.000000 0.000000 0.000000 -0.000000 0.000000 0.000000 0.000000 0.000000 0.000000 0.000000 0.000000 0.000000 -0.000000 0.000000 -41.360285 -0.000000 0.000000 0.000000 -0.000000 0.000000 0.000000 0.000000 0.000000 0.000000 -0.000000 0.000000 -41.360285 -0.000000 0.000000 0.000000 -0.000000 0.000000 0.000000 0.000000 0.000000 0.000000
6.132564 81.595911 282.735408 0.079513 0.128504 41.580278 -0.144762 -0.043355 -41.580422 -0.000000 0.000000 0.000000 -0.000000 0.000000 0.000000 0.000000 0.000000 0.000000 -0.000000 0.000000 0.000000 -0.000000 0.000000 0.000000 -0.000000 0.000000 0.000000 -0.816587 -0.775710 -0.032080 0.000000 0.000000 0.000000 0.000000 0.000000 0.000000 -0.000000 0.000000 0.000000 -0.000000 0.000000 0.000000 0.203054 -0.837745 0.316107 -0.198450 0.838847 -0.313170 0.000000 0.000000 0.000000 0.000000 0.000000 0.000000 -0.144762 -0.043355 -41.580422 -0.000000 0.000000 0.000000 -1.939236 0.459833 0.366520 0.000000 0.000000 0.000000 -0.144762 -0.043355 -41.580422 -0.000000 0.000000 0.000000 0.790995 0.595727 -0.818362 0.000000 0.000000 0.000000
6.179999 81.622222 282.567597 0.155715 0.223244 41.766514 -0.264844 -0.062788 -41.766962 -0.000000 0.000000 0.000000 -0.000000 0.000000 0.000000 0.000000 0.000000 0.000000 -0.000000 0.000000 0.000000 -0.000000 0.000000 0.000000 0.521924 -0.598279 -0.426970 -2.054028 -0.764149 0.415337 0.000000 0.000000 0.000000 0.000000 0.000000 0.000000 -0.000000 0.000000 0.000000 -0.000000 0.000000 0.000000 0.318824 -1.551960 0.581448 -1.110531 0.638819 -0.300925 0.000000 0.000000 0.000000 0.000000 0.000000 0.000000 -0.264844 -0.062788 -41.766962 -0.000000 0.000000 0.000000 -3.468491 0.919720 0.632201 0.000000 0.000000 0.000000 -0.264844 -0.062788 -41.766962 -0.000000 0.000000 0.000000 1.277407 1.078107 -1.373259 0.000000 0.000000 0.000000
6.208366 81.641229 282.435300 0.228582 0.284155 41.919904 -0.359924 -0.058718 -41.920656 -0.000000 0.000000 0.000000 -0.000000 0.000000 0.000000 0.000000 0.000000 0.000000 -0.000000 0.000000 0.000000 -0.000000 0.000000 0.000000 0.620122 -1.165814 -0.590372 -2.791179 -0.594546 0.647488 0.000000 0.000000 0.000000 0.000000 0.000000 0.000000 -0.000000 0.000000 0.000000 -0.000000 0.000000 0.000000 0.344971 -2.140506 0.792893 -1.310771 0.979336 -0.428198 0.000000 0.000000 0.000000 0.000000 0.000000 0.000000 -0.359924 -0.058718 -41.920656 -0.000000 0.000000 0.000000 -4.583887 1.385660 0.791938 0.000000 0.000000 0.000000 -0.359924 -0.058718 -41.920656 -0.000000 0.000000 0.000000 1.458931 1.457498 -1.663853 0.000000 0.000000 0.000000
6.217665 81.652932 282.338517 0.298092 0.311195 42.041233 -0.429778 -0.031488 -42.042161 -0.000000 0.000000 0.000000 -0.000000 0.000000 0.000000 0.000000 0.000000 0.000000 -0.000000 0.000000 0.000000 -0.000000 0.000000 0.000000 0.585219 -1.922777 -0.709315 -3.330605 -0.059003 0.892334 0.000000 0.000000 0.000000 0.000000 0.000000 0.000000 -0.000000 0.000000 0.000000 -0.000000 0.000000 0.000000 0.280197 -2.602173 0.948345 -1.278312 1.324348 -0.545806 0.000000 0.000000 0.000000 0.000000 0.000000 0.000000 -0.429778 -0.031488 -42.042161 -0.000000 0.000000 0.000000 -5.284936 1.861955 0.841362 0.000000 0.000000 0.000000 -0.429778 -0.031488 -42.042161 -0.000000 0.000000 0.000000 1.334960 1.739528 -1.689503 0.000000 0.000000 0.000000
6.207896 81.657330 282.277248 0.364224 0.304338 42.131156 -0.474270 0.018636 -42.132046 -0.000000 0.000000 0.000000 -0.000000 0.000000 0.000000 0.000000 0.000000 0.000000 -0.000000 0.000000 0.000000 -0.000000 0.000000 0.000000 0.405393 -2.864558 -0.778716 -3.671415 0.835002 1.145353 0.000000 0.000000 0.000000 0.000000 0.000000 0.000000 -0.000000 0.000000 0.000000 -0.000000 0.000000 0.000000 0.124264 -2.936557 1.046754 -1.016964 1.669170 -0.656711 0.000000 0.000000 0.000000 0.000000 0.000000 0.000000 -0.474270 0.018636 -42.132046 -0.000000 0.000000 0.000000 -5.572679 2.350829 0.776311 0.000000 0.000000 0.000000 -0.474270 0.018636 -42.132046 -0.000000 0.000000 0.000000 0.904108 1.924866 -1.449264 0.000000 0.000000 0.000000
6.214161 81.649958 282.265185 0.421600 0.257969 42.194222 -0.485614 0.092047 -42.194781 -0.000000 0.000000 0.000000 -0.000000 0.000000 0.000000 0.000000 0.000000 0.000000 -0.000000 0.000000 0.000000 -0.000000 0.000000 0.000000 -0.052341 -4.223954 -0.769975 -4.607202 3.677293 2.149888 0.000000 0.000000 0.000000 0.000000 0.000000 0.000000 -0.000000 0.000000 0.000000 -0.000000 0.000000 0.000000 -0.052504 -2.980284 1.039760 -0.462938 1.884218 -0.734423 0.000000 0.000000 0.000000 0.000000 0.000000 0.000000 -0.485614 0.092047 -42.194781 -0.000000 0.000000 0.000000 -5.888210 2.860522 0.715753 0.000000 0.000000 0.000000 -0.485614 0.092047 -42.194781 -0.000000 0.000000 0.000000 -0.221850 1.971581 -0.645134 0.000000 0.000000 0.000000
6.150322 81.647114 282.310863 0.431800 0.140323 42.173802 -0.414223 0.185908 -42.173658 -0.000000 0.000000 0.000000 -0.000000 0.000000 0.000000 0.000000 0.000000 0.000000 -0.000000 0.000000 0.000000 -0.000000 0.000000 0.000000 -0.446256 -5.105154 -0.714009 -4.662924 4.771738 2.357643 0.000000 0.000000 0.000000 0.000000 0.000000 0.000000 -0.000000 0.000000 0.000000 -0.000000 0.000000 0.000000 -0.461082 -2.996830 0.993878 0.513670 2.988273 -1.019338 0.000000 0.000000 0.000000 0.000000 0.000000 0.000000 -0.414223 0.185908 -42.173658 -0.000000 0.000000 0.000000 -5.418383 3.564699 0.372660 0.000000 0.000000 0.000000 -0.414223 0.185908 -42.173658 -0.000000 0.000000 0.000000 -1.310708 1.919706 0.165421 0.000000 0.000000 0.000000
6.100920 81.629501 282.328347 0.335730 0.035891 42.310525 -0.272436 0.199454 -42.310156 -0.000000 0.000000 0.000000 -0.000000 0.000000 0.000000 0.000000 0.000000 0.000000 -0.000000 0.000000 0.000000 -0.000000 0.000000 0.000000 -0.862712 -6.377813 -0.730697 -2.949111 7.355614 2.370041 0.000000 0.000000 0.000000 0.000000 0.000000 0.000000 -0.000000 0.000000 0.000000 -0.000000 0.000000 0.000000 -0.689412 -3.151288 1.018139 0.746390 3.138293 -1.057550 0.000000 0.000000 0.000000 0.000000 0.000000 0.000000 -0.272436 0.199454 -42.310156 -0.000000 0.000000 0.000000 -4.171029 3.786207 -0.061369 0.000000 0.000000 0.000000 -0.272436 0.199454 -42.310156 -0.000000 0.000000 0.000000 -2.322463 1.433128 1.084957 0.000000 0.000000 0.000000
5.960661 81.593390 282.407567 0.367807 -0.106277 42.335863 -0.200315 0.326268 -42.334952 -0.000000 0.000000 0.000000 0.930955 0.503149 0.219568 0.000000 0.000000 0.000000 -0.000000 0.000000 0.000000 -0.000000 0.000000 0.000000 -1.657152 -7.555180 -0.523597 -2.234528 7.013840 1.636210 0.000000 0.000000 0.000000 0.000000 0.000000 0.000000 -0.000000 0.000000 0.000000 0.089585 -0.807921 0.224426 -2.228266 -1.384798 0.327934 3.122797 1.050930 -0.422717 0.000000 0.000000 0.000000 0.000000 0.000000 0.000000 -0.200315 0.326268 -42.334952 0.624626 -0.544397 -0.024542 -3.760834 4.824699 -0.466813 0.000000 0.000000 0.000000 -0.200315 0.326268 -42.334952 -0.000000 0.000000 0.000000 -1.156594 -2.072235 1.683142 0.000000 0.000000 0.000000
